<svg xmlns="http://www.w3.org/2000/svg" xmlns:xlink="http://www.w3.org/1999/xlink" viewBox="-71 2486 51 51">
  <defs>
    <style>
      .cls-1 {
        clip-path: url(#clip-icon_industries_54);
      }

      .cls-2, .cls-3 {
        fill: none;
        stroke: #12213d;
        stroke-miterlimit: 10;
        stroke-width: 2px;
      }

      .cls-3 {
        stroke-linejoin: round;
      }

      .cls-4 {
        fill: #fff;
      }
    </style>
    <clipPath id="clip-icon_industries_54">
      <rect x="-71" y="2486" width="51" height="51"/>
    </clipPath>
  </defs>
  <g id="icon_industries_54" class="cls-1">
    <rect class="cls-4" x="-71" y="2486" width="51" height="51"/>
    <g id="Group_127" data-name="Group 127" transform="translate(-69 2493)">
      <circle id="Ellipse_33" data-name="Ellipse 33" class="cls-2" cx="3" cy="3" r="3" transform="translate(7 22)"/>
      <circle id="Ellipse_34" data-name="Ellipse 34" class="cls-2" cx="3" cy="3" r="3" transform="translate(18 22)"/>
      <line id="Line_65" data-name="Line 65" class="cls-2" x2="7" transform="translate(12 33)"/>
      <path id="Path_206" data-name="Path 206" class="cls-2" d="M30,26v3a.945.945,0,0,1-1,1H28v7H3V30H2a.945.945,0,0,1-1-1V24a.945.945,0,0,1,1-1H3V19a4.012,4.012,0,0,1,4-4H23"/>
      <line id="Line_66" data-name="Line 66" class="cls-2" y1="9" transform="translate(15 6)"/>
      <path id="Path_207" data-name="Path 207" class="cls-3" d="M46,1H26a.945.945,0,0,0-1,1V17a.945.945,0,0,0,1,1h2v4.3a1.048,1.048,0,0,0,1.8.7L34,18H46a.945.945,0,0,0,1-1V2A.945.945,0,0,0,46,1Z"/>
      <line id="Line_67" data-name="Line 67" class="cls-2" x2="12" transform="translate(30 7)"/>
      <line id="Line_68" data-name="Line 68" class="cls-2" x2="7" transform="translate(30 11)"/>
    </g>
  </g>
</svg>
